<svg width="32" height="33" viewBox="0 0 32 33" fill="none" xmlns="http://www.w3.org/2000/svg">
<mask id="mask0_237_16583" style="mask-type:alpha" maskUnits="userSpaceOnUse" x="-1" y="0" width="33" height="33">
<rect x="-0.34375" y="0.455078" width="32" height="32" fill="#D9D9D9"/>
</mask>
<g mask="url(#mask0_237_16583)">
<path d="M7.65495 29.7878C6.92161 29.7878 6.29384 29.5266 5.77161 29.0044C5.24939 28.4822 4.98828 27.8544 4.98828 27.1211V5.78776C4.98828 5.05443 5.24939 4.42665 5.77161 3.90443C6.29384 3.3822 6.92161 3.12109 7.65495 3.12109H23.6549C24.3883 3.12109 25.0161 3.3822 25.5383 3.90443C26.0605 4.42665 26.3216 5.05443 26.3216 5.78776V27.1211C26.3216 27.8544 26.0605 28.4822 25.5383 29.0044C25.0161 29.5266 24.3883 29.7878 23.6549 29.7878H7.65495ZM7.65495 27.1211H23.6549V5.78776H20.9883V15.1211L17.6549 13.1211L14.3216 15.1211V5.78776H7.65495V27.1211Z" fill="#35633A"/>
</g>
</svg>
