<svg width="32" height="33" viewBox="0 0 32 33" fill="none" xmlns="http://www.w3.org/2000/svg">
<mask id="mask0_94_8732" style="mask-type:alpha" maskUnits="userSpaceOnUse" x="0" y="0" width="32" height="33">
<rect y="0.5" width="32" height="32" fill="#D9D9D9"/>
</mask>
<g mask="url(#mask0_94_8732)">
<path d="M21.3346 27.166V15.166H5.33464V27.166H21.3346ZM24.0013 20.4993V17.8327H26.668V5.83268H10.668V12.4993H8.0013V5.83268C8.0013 5.09935 8.26241 4.47157 8.78464 3.94935C9.30686 3.42713 9.93464 3.16602 10.668 3.16602H26.668C27.4013 3.16602 28.0291 3.42713 28.5513 3.94935C29.0735 4.47157 29.3346 5.09935 29.3346 5.83268V17.8327C29.3346 18.566 29.0735 19.1938 28.5513 19.716C28.0291 20.2382 27.4013 20.4993 26.668 20.4993H24.0013ZM5.33464 29.8327C4.6013 29.8327 3.97352 29.5716 3.4513 29.0493C2.92908 28.5271 2.66797 27.8993 2.66797 27.166V15.166C2.66797 14.4327 2.92908 13.8049 3.4513 13.2827C3.97352 12.7605 4.6013 12.4993 5.33464 12.4993H21.3346C22.068 12.4993 22.6957 12.7605 23.218 13.2827C23.7402 13.8049 24.0013 14.4327 24.0013 15.166V27.166C24.0013 27.8993 23.7402 28.5271 23.218 29.0493C22.6957 29.5716 22.068 29.8327 21.3346 29.8327H5.33464Z" fill="#35633A"/>
</g>
</svg>
