<svg width="32" height="32" viewBox="0 0 32 32" fill="none" xmlns="http://www.w3.org/2000/svg">
<path d="M28.5735 28.8665H3.0802C2.49353 28.8665 2.18686 27.8932 2.6002 27.3332L6.26686 22.2799C6.61353 21.7999 7.09353 21.5332 7.58686 21.5332H24.0402C24.5335 21.5332 25.0135 21.7999 25.3602 22.2799L29.0269 27.3332C29.4402 27.9065 29.1469 28.8665 28.5469 28.8665H28.5735Z" fill="#C7D5C9"/>
<path d="M21.0672 5.66477C19.7206 4.30477 17.9072 3.38477 16.0006 3.38477C13.8672 3.38477 11.9206 4.25143 10.5206 5.65143C10.5072 5.66477 10.4939 5.69143 10.4806 5.70477C9.62724 6.57143 8.97391 7.6381 8.60057 8.82477C8.37391 9.5581 8.25391 10.3314 8.25391 11.1314C8.25391 11.7581 8.34724 12.3581 8.49391 12.9448C8.56057 13.2248 8.65391 13.5314 8.77391 13.8514C8.84057 14.0381 8.92057 14.2381 9.01391 14.4114C10.2672 17.2248 13.2272 21.1981 14.8672 23.2914C15.1072 23.5981 15.3072 23.8648 15.4806 24.0781L16.0006 24.7448V24.8648L16.6139 23.9714L16.7072 23.8514C16.8406 23.6914 16.9739 23.5048 17.1339 23.3048C18.7739 21.2114 21.7206 17.2381 22.9872 14.4248C23.0806 14.2381 23.1472 14.0514 23.2272 13.8648C23.3472 13.5314 23.4539 13.2248 23.5072 12.9448C24.0139 10.8648 23.9206 8.57143 21.0672 5.66477Z" fill="#35633A"/>
<path d="M15.949 14.9194C18.1213 14.9194 19.8823 13.1584 19.8823 10.9861C19.8823 8.81375 18.1213 7.05273 15.949 7.05273C13.7766 7.05273 12.0156 8.81375 12.0156 10.9861C12.0156 13.1584 13.7766 14.9194 15.949 14.9194Z" fill="#C7D5C9"/>
</svg>
