<svg width="32" height="32" viewBox="0 0 32 32" fill="none" xmlns="http://www.w3.org/2000/svg">
<path d="M15.8679 12.9336L23.4679 5.32031H8.28125L15.8679 12.9336Z" fill="#35633A"/>
<path d="M16.4124 29.1184C22.5591 29.1184 25.8791 26.6784 26.2124 22.6917C26.5458 18.7051 23.1724 14.7851 21.6124 12.4117C20.0524 10.0384 19.7191 9.70508 19.7191 9.70508H12.0124C12.0124 9.70508 11.6791 10.0517 10.1191 12.4117C8.55911 14.7717 5.18577 18.7051 5.5191 22.6917C5.85244 26.6784 9.17244 29.1184 15.3191 29.1184H16.3991H16.4124Z" fill="#35633A"/>
<path d="M19.9842 8.37305H11.7708C11.0345 8.37305 10.4375 8.97 10.4375 9.70638C10.4375 10.4428 11.0345 11.0397 11.7708 11.0397H19.9842C20.7205 11.0397 21.3175 10.4428 21.3175 9.70638C21.3175 8.97 20.7205 8.37305 19.9842 8.37305Z" fill="#C7D5C9"/>
<path d="M19.639 17.9746H12.2656V19.4813H19.639V17.9746Z" fill="#C7D5C9"/>
<path d="M19.639 20.8262H12.2656V22.3328H19.639V20.8262Z" fill="#C7D5C9"/>
<path d="M16.7059 19.3457H15.1992V25.999H16.7059V19.3457Z" fill="#C7D5C9"/>
<path d="M15.9602 17.7599L13.5335 14.9199H11.5469L15.9602 20.0933L20.3602 14.9199H18.3735L15.9602 17.7599Z" fill="#C7D5C9"/>
</svg>
