<svg width="32" height="33" viewBox="0 0 32 33" fill="none" xmlns="http://www.w3.org/2000/svg">
<mask id="mask0_121_1232" style="mask-type:alpha" maskUnits="userSpaceOnUse" x="0" y="0" width="32" height="33">
<rect y="0.5" width="32" height="32" fill="#D9D9D9"/>
</mask>
<g mask="url(#mask0_121_1232)">
<path d="M26.1333 28.5L17.7333 20.1C17.0667 20.6333 16.3 21.0556 15.4333 21.3667C14.5667 21.6778 13.6444 21.8333 12.6667 21.8333C10.2444 21.8333 8.19444 20.9944 6.51667 19.3167C4.83889 17.6389 4 15.5889 4 13.1667C4 10.7444 4.83889 8.69444 6.51667 7.01667C8.19444 5.33889 10.2444 4.5 12.6667 4.5C15.0889 4.5 17.1389 5.33889 18.8167 7.01667C20.4944 8.69444 21.3333 10.7444 21.3333 13.1667C21.3333 14.1444 21.1778 15.0667 20.8667 15.9333C20.5556 16.8 20.1333 17.5667 19.6 18.2333L28 26.6333L26.1333 28.5ZM12.6667 19.1667C14.3333 19.1667 15.75 18.5833 16.9167 17.4167C18.0833 16.25 18.6667 14.8333 18.6667 13.1667C18.6667 11.5 18.0833 10.0833 16.9167 8.91667C15.75 7.75 14.3333 7.16667 12.6667 7.16667C11 7.16667 9.58333 7.75 8.41667 8.91667C7.25 10.0833 6.66667 11.5 6.66667 13.1667C6.66667 14.8333 7.25 16.25 8.41667 17.4167C9.58333 18.5833 11 19.1667 12.6667 19.1667Z" fill="white"/>
</g>
</svg>
