<svg width="90" height="90" viewBox="0 0 90 90" fill="none" xmlns="http://www.w3.org/2000/svg">
<circle cx="45" cy="45" r="45" fill="#2C933A"/>
<path d="M34.1106 74.7854C33.382 74.8197 32.6834 74.794 32.0148 74.7083C31.3463 74.6226 30.7506 74.4597 30.2277 74.2197C29.7048 73.9797 29.2891 73.6583 28.9806 73.2554C28.6806 72.844 28.5306 72.3383 28.5306 71.7383C28.5306 71.1554 28.7234 70.6669 29.1091 70.2726C29.4948 69.8697 30.0134 69.5826 30.6648 69.4111C31.3163 69.2311 32.0363 69.1883 32.8248 69.2826C32.6106 68.9826 32.4091 68.674 32.2206 68.3569C32.032 68.0311 31.8606 67.6969 31.7063 67.354C30.8834 67.414 30.0863 67.4654 29.3148 67.5083C28.5434 67.5426 27.8877 67.5554 27.3477 67.5469L27.1548 66.0426C27.6263 66.0854 28.222 66.1026 28.942 66.094C29.6706 66.0854 30.4291 66.0554 31.2177 66.004C30.9948 65.2154 30.8834 64.4526 30.8834 63.7154H32.4263C32.4177 64.0754 32.4391 64.4397 32.4906 64.8083C32.542 65.1683 32.6148 65.524 32.7091 65.8754C33.532 65.7983 34.2991 65.704 35.0106 65.5926C35.7306 65.4811 36.2963 65.3569 36.7077 65.2197L36.9263 66.6983C36.5234 66.784 35.992 66.874 35.332 66.9683C34.6806 67.054 33.9734 67.1354 33.2106 67.2126C33.4763 67.7611 33.802 68.284 34.1877 68.7811C34.582 69.2697 35.0363 69.7026 35.5506 70.0797L34.6248 71.134C34.2563 70.9197 33.8663 70.7569 33.4548 70.6454C33.0434 70.534 32.6363 70.4783 32.2334 70.4783C31.8391 70.4697 31.4791 70.5126 31.1534 70.6069C30.8277 70.7011 30.5663 70.8426 30.3691 71.0311C30.1806 71.2197 30.0863 71.4554 30.0863 71.7383C30.0863 72.1583 30.292 72.484 30.7034 72.7154C31.1234 72.9383 31.6848 73.0883 32.3877 73.1654C33.0991 73.234 33.8834 73.2426 34.7406 73.1911C34.6463 73.3197 34.552 73.4869 34.4577 73.6926C34.372 73.8897 34.2948 74.0869 34.2263 74.284C34.1663 74.4811 34.1277 74.6483 34.1106 74.7854ZM40.642 74.4769C40.5648 74.3997 40.4448 74.3054 40.282 74.194C40.1191 74.0826 39.952 73.9797 39.7806 73.8854C39.6091 73.7911 39.4634 73.7269 39.3434 73.6926C39.7034 73.3069 40.0506 72.8397 40.3848 72.2911C40.7191 71.734 41.0363 71.1297 41.3363 70.4783C41.6363 69.8269 41.902 69.1583 42.1334 68.4726C41.6963 68.524 41.272 68.584 40.8606 68.6526C40.4577 68.7211 40.1234 68.7897 39.8577 68.8583C39.8491 68.7469 39.8277 68.5969 39.7934 68.4083C39.7591 68.2197 39.7206 68.0354 39.6777 67.8554C39.6348 67.6669 39.592 67.5297 39.5491 67.444C39.7463 67.4269 40.0034 67.4054 40.3206 67.3797C40.6377 67.3454 40.9891 67.3111 41.3748 67.2769C41.7606 67.234 42.1463 67.1997 42.532 67.174C42.6863 66.634 42.8106 66.1069 42.9048 65.5926C43.0077 65.0697 43.0763 64.5854 43.1106 64.1397L44.6277 64.4097C44.5848 64.804 44.5163 65.2283 44.422 65.6826C44.3277 66.1283 44.212 66.5869 44.0748 67.0583C44.2463 67.0497 44.4006 67.0454 44.5377 67.0454C44.6748 67.0369 44.7948 67.0326 44.8977 67.0326C45.2406 67.0326 45.5448 67.0883 45.8106 67.1997C46.0848 67.3026 46.3034 67.4911 46.4663 67.7654C46.6291 68.0311 46.7234 68.404 46.7491 68.884C46.7748 69.3554 46.7191 69.9597 46.582 70.6969C46.4106 71.6226 46.2134 72.3469 45.9906 72.8697C45.7763 73.3926 45.5063 73.7611 45.1806 73.9754C44.8548 74.1897 44.4391 74.2969 43.9334 74.2969C43.4191 74.2969 42.9691 74.2026 42.5834 74.014C42.592 73.8083 42.592 73.5597 42.5834 73.2683C42.5748 72.9769 42.5491 72.7369 42.5063 72.5483C42.9348 72.7369 43.3548 72.8311 43.7663 72.8311C43.972 72.8311 44.1477 72.7754 44.2934 72.664C44.4477 72.544 44.5934 72.3126 44.7306 71.9697C44.8677 71.6183 45.0048 71.104 45.142 70.4269C45.2706 69.8011 45.322 69.3383 45.2963 69.0383C45.2706 68.7297 45.1891 68.5283 45.052 68.434C44.9148 68.3397 44.7434 68.2926 44.5377 68.2926C44.2977 68.2926 44.0106 68.3054 43.6763 68.3311C43.4106 69.1283 43.1063 69.9126 42.7634 70.684C42.4291 71.4554 42.0777 72.1711 41.7091 72.8311C41.3491 73.4826 40.9934 74.0311 40.642 74.4769ZM50.0148 71.134C49.8777 70.9026 49.6891 70.6283 49.4491 70.3111C49.2091 69.994 48.9477 69.6769 48.6648 69.3597C48.382 69.034 48.1077 68.7383 47.842 68.4726C47.5763 68.1983 47.3448 67.9926 47.1477 67.8554L48.2791 66.904C48.4848 67.0583 48.7248 67.2683 48.9991 67.534C49.2734 67.7911 49.5563 68.074 49.8477 68.3826C50.1391 68.6911 50.4091 68.9954 50.6577 69.2954C50.9063 69.5954 51.0991 69.8569 51.2363 70.0797L50.0148 71.134ZM50.5934 65.8369C50.362 65.6226 50.0748 65.4083 49.732 65.194C49.3977 64.9711 49.102 64.804 48.8448 64.6926L49.3848 63.9597C49.5306 64.0283 49.7148 64.1311 49.9377 64.2683C50.1691 64.4054 50.3963 64.5511 50.6191 64.7054C50.8506 64.8511 51.0306 64.9797 51.1591 65.0911L50.5934 65.8369ZM49.7191 67.0711C49.4963 66.8569 49.2134 66.6383 48.8706 66.4154C48.5363 66.1926 48.2406 66.0211 47.9834 65.9011L48.5234 65.1811C48.6691 65.2497 48.8534 65.3569 49.0763 65.5026C49.3077 65.6397 49.5348 65.7854 49.7577 65.9397C49.9806 66.0854 50.1563 66.214 50.2848 66.3254L49.7191 67.0711ZM55.8777 75.0297C55.7748 74.8583 55.6377 74.6526 55.4663 74.4126C55.2948 74.1726 55.0977 73.9669 54.8748 73.7954C55.7834 73.5383 56.482 73.2426 56.9706 72.9083C57.4591 72.5654 57.7977 72.1626 57.9863 71.6997C57.712 71.8369 57.4377 71.9054 57.1634 71.9054C56.512 71.9054 55.9848 71.7211 55.582 71.3526C55.1877 70.984 54.9777 70.4869 54.952 69.8611C54.9348 69.4326 55.0206 69.0511 55.2091 68.7169C55.3977 68.374 55.6634 68.104 56.0063 67.9069C56.3491 67.7097 56.7391 67.6111 57.1763 67.6111C57.2448 67.6111 57.3048 67.6154 57.3563 67.624C57.4077 67.624 57.4634 67.6283 57.5234 67.6369C57.5063 67.4826 57.4891 67.324 57.472 67.1611C57.4548 66.9983 57.4463 66.8269 57.4463 66.6469C56.752 66.6726 56.0748 66.7111 55.4148 66.7626C54.7548 66.814 54.1506 66.874 53.602 66.9426C53.0534 67.0026 52.5991 67.0754 52.2391 67.1611L52.0206 65.6697C52.3291 65.644 52.762 65.6183 53.3191 65.5926C53.8763 65.5583 54.5106 65.524 55.222 65.4897C55.942 65.4554 56.6834 65.4211 57.4463 65.3869V63.574H58.9377V65.3226C59.6063 65.2969 60.2448 65.2754 60.8534 65.2583C61.462 65.2326 62.0063 65.2154 62.4863 65.2069C62.9663 65.1897 63.3434 65.1854 63.6177 65.194L63.5148 66.6983C63.0177 66.6383 62.3577 66.604 61.5348 66.5954C60.7206 66.5783 59.8548 66.5783 58.9377 66.5954C58.9377 66.904 58.9463 67.2169 58.9634 67.534C58.9891 67.8511 59.0106 68.1554 59.0277 68.4469C59.4477 68.944 59.6577 69.604 59.6577 70.4269C59.6577 71.5669 59.3277 72.5269 58.6677 73.3069C58.0077 74.0783 57.0777 74.6526 55.8777 75.0297ZM57.1763 70.6197C57.4163 70.6026 57.6048 70.5211 57.742 70.3754C57.8791 70.2297 57.9477 70.0411 57.9477 69.8097C57.9477 69.7326 57.9391 69.6511 57.922 69.5654C57.9134 69.4711 57.9006 69.3726 57.8834 69.2697C57.7034 69.064 57.4763 68.9611 57.202 68.9611C56.962 68.9611 56.7606 69.0383 56.5977 69.1926C56.4348 69.3469 56.3577 69.544 56.3663 69.784C56.3663 70.0326 56.4391 70.2383 56.5848 70.4011C56.7391 70.5554 56.9363 70.6283 57.1763 70.6197Z" fill="white"/>
<path d="M49.1978 39.8588L46.7734 42.2832L58.8831 54.3929L61.3075 51.9685L49.1978 39.8588Z" fill="#C7D5C9"/>
<path d="M53.7655 43.1916L50.1289 46.8281L59.3779 56.0771L63.0144 52.4405L53.7655 43.1916Z" fill="#35633A"/>
<path d="M41.0363 45.3851C47.2566 45.3851 52.2992 40.3425 52.2992 34.1222C52.2992 27.9019 47.2566 22.8594 41.0363 22.8594C34.816 22.8594 29.7734 27.9019 29.7734 34.1222C29.7734 40.3425 34.816 45.3851 41.0363 45.3851Z" fill="#C7D5C9"/>
<path d="M41.0377 47.0981C37.712 47.0981 34.3863 45.8295 31.8663 43.3095C29.3463 40.7895 28.0605 37.601 28.0605 34.1381C28.0605 30.6753 29.4148 27.4181 31.8663 24.9667C36.9234 19.9095 45.152 19.9095 50.2091 24.9667C55.2663 30.0238 55.2663 38.2524 50.2091 43.3267C47.672 45.8638 44.3634 47.1153 41.0377 47.1153V47.0981ZM41.0377 24.5895C38.5863 24.5895 36.152 25.5153 34.2834 27.3838C32.4834 29.1838 31.4891 31.5838 31.4891 34.1381C31.4891 36.6924 32.4834 39.0924 34.2834 40.8924C38.0034 44.6124 44.0548 44.6124 47.792 40.8924C51.5291 37.1724 51.512 31.1038 47.792 27.3838C45.9234 25.5153 43.4891 24.5895 41.0377 24.5895Z" fill="#35633A"/>
</svg>
