<svg width="42" height="114" viewBox="0 0 42 114" fill="none" xmlns="http://www.w3.org/2000/svg">
<path d="M0 0H34C38.4183 0 42 3.58172 42 8V106C42 110.418 38.4183 114 34 114H0V0Z" fill="#35633A"/>
<mask id="mask0_279_12350" style="mask-type:alpha" maskUnits="userSpaceOnUse" x="12" y="12" width="32" height="32">
<rect x="12" y="12" width="32" height="32" fill="#D9D9D9"/>
</mask>
<g mask="url(#mask0_279_12350)">
<path d="M21.334 24L17.334 20L21.334 16L22.2673 16.9333L19.2007 20L22.2673 23.0667L21.334 24Z" fill="white"/>
</g>
<path d="M16.436 44.876V40.004C16.108 40.044 15.788 40.084 15.476 40.124C15.172 40.156 14.904 40.18 14.672 40.196L14.504 38.96C14.608 38.96 14.72 38.96 14.84 38.96C14.968 38.952 15.096 38.944 15.224 38.936C15.368 38.792 15.524 38.616 15.692 38.408C15.86 38.2 16.032 37.976 16.208 37.736C15.952 37.528 15.66 37.308 15.332 37.076C15.004 36.844 14.696 36.644 14.408 36.476L15.08 35.468C15.16 35.508 15.24 35.556 15.32 35.612C15.4 35.66 15.48 35.712 15.56 35.768C15.68 35.584 15.804 35.376 15.932 35.144C16.06 34.912 16.176 34.684 16.28 34.46C16.392 34.236 16.476 34.052 16.532 33.908L17.648 34.364C17.472 34.684 17.276 35.028 17.06 35.396C16.844 35.764 16.64 36.092 16.448 36.38C16.536 36.436 16.62 36.496 16.7 36.56C16.78 36.624 16.856 36.684 16.928 36.74C17.16 36.404 17.368 36.088 17.552 35.792C17.736 35.488 17.88 35.236 17.984 35.036L19.076 35.612C18.908 35.9 18.692 36.232 18.428 36.608C18.172 36.984 17.896 37.368 17.6 37.76C17.312 38.144 17.036 38.504 16.772 38.84C17.004 38.824 17.228 38.808 17.444 38.792C17.668 38.768 17.876 38.748 18.068 38.732C17.956 38.452 17.848 38.236 17.744 38.084L18.74 37.64C18.868 37.84 18.996 38.08 19.124 38.36C19.26 38.632 19.388 38.912 19.508 39.2C19.628 39.48 19.724 39.728 19.796 39.944C19.644 39.984 19.464 40.052 19.256 40.148C19.056 40.244 18.88 40.336 18.728 40.424C18.696 40.336 18.656 40.232 18.608 40.112C18.568 39.984 18.52 39.848 18.464 39.704C18.352 39.728 18.228 39.752 18.092 39.776C17.964 39.792 17.832 39.808 17.696 39.824V44.876H16.436ZM20.048 44.564V40.172H24.896V44.564H20.048ZM19.736 39.32V38.12H21.752V36.86H19.34V35.636H21.752V34.028H23.156V35.636H25.544V36.86H23.156V38.12H25.22V39.32H19.736ZM21.428 43.328H23.528V41.408H21.428V43.328ZM15.404 43.7C15.252 43.636 15.068 43.568 14.852 43.496C14.644 43.424 14.46 43.38 14.3 43.364C14.428 43.148 14.552 42.876 14.672 42.548C14.792 42.22 14.896 41.88 14.984 41.528C15.08 41.176 15.148 40.856 15.188 40.568L16.256 40.796C16.216 41.084 16.148 41.412 16.052 41.78C15.964 42.148 15.864 42.504 15.752 42.848C15.64 43.184 15.524 43.468 15.404 43.7ZM18.692 43.328C18.644 43.2 18.584 43.028 18.512 42.812C18.448 42.596 18.38 42.364 18.308 42.116C18.236 41.86 18.168 41.612 18.104 41.372C18.04 41.132 17.988 40.928 17.948 40.76L19.016 40.484C19.064 40.684 19.136 40.94 19.232 41.252C19.328 41.556 19.428 41.86 19.532 42.164C19.636 42.46 19.728 42.696 19.808 42.872C19.656 42.92 19.464 42.992 19.232 43.088C19.008 43.176 18.828 43.256 18.692 43.328ZM19.316 58.924V55.768C18.956 56.136 18.544 56.504 18.08 56.872C17.616 57.232 17.136 57.568 16.64 57.88C16.152 58.184 15.692 58.44 15.26 58.648C15.196 58.528 15.112 58.388 15.008 58.228C14.912 58.076 14.808 57.932 14.696 57.796C14.592 57.652 14.496 57.54 14.408 57.46C14.832 57.292 15.276 57.084 15.74 56.836C16.212 56.58 16.672 56.3 17.12 55.996C17.576 55.692 17.988 55.384 18.356 55.072H14.648V53.884H19.316V53.128H15.944V48.22H24.116V53.128H20.708V53.884H25.376V55.072H21.728C22.088 55.376 22.496 55.68 22.952 55.984C23.408 56.28 23.872 56.552 24.344 56.8C24.816 57.048 25.252 57.248 25.652 57.4C25.5 57.536 25.344 57.724 25.184 57.964C25.032 58.196 24.9 58.412 24.788 58.612C24.348 58.404 23.884 58.148 23.396 57.844C22.908 57.54 22.428 57.208 21.956 56.848C21.492 56.488 21.076 56.112 20.708 55.72V58.924H19.316ZM20.708 52.024H22.652V51.184H20.708V52.024ZM20.708 50.164H22.652V49.324H20.708V50.164ZM17.408 52.024H19.316V51.184H17.408V52.024ZM17.408 50.164H19.316V49.324H17.408V50.164ZM15.8 72.084C15.744 71.756 15.7 71.356 15.668 70.884C15.636 70.404 15.612 69.884 15.596 69.324C15.588 68.756 15.588 68.172 15.596 67.572C15.612 66.972 15.636 66.388 15.668 65.82C15.708 65.244 15.756 64.712 15.812 64.224C15.876 63.736 15.948 63.32 16.028 62.976L17.432 63.264C17.344 63.552 17.268 63.928 17.204 64.392C17.14 64.848 17.088 65.352 17.048 65.904C17.008 66.448 16.98 67.008 16.964 67.584C16.956 68.16 16.96 68.72 16.976 69.264C16.992 69.808 17.02 70.3 17.06 70.74C17.1 71.18 17.152 71.536 17.216 71.808L15.8 72.084ZM20.9 71.436C19.516 71.396 18.732 70.944 18.548 70.08C18.5 69.864 18.484 69.624 18.5 69.36C18.516 69.096 18.576 68.804 18.68 68.484L19.94 68.796C19.884 68.948 19.852 69.084 19.844 69.204C19.844 69.324 19.86 69.432 19.892 69.528C19.996 69.816 20.42 69.972 21.164 69.996C21.524 70.004 21.908 69.992 22.316 69.96C22.732 69.92 23.136 69.864 23.528 69.792C23.928 69.72 24.276 69.64 24.572 69.552C24.556 69.664 24.536 69.816 24.512 70.008C24.496 70.2 24.484 70.396 24.476 70.596C24.468 70.788 24.468 70.948 24.476 71.076C24.1 71.172 23.696 71.248 23.264 71.304C22.84 71.36 22.42 71.4 22.004 71.424C21.596 71.44 21.228 71.444 20.9 71.436ZM19.1 65.58L19.016 64.104C19.32 64.144 19.692 64.168 20.132 64.176C20.572 64.184 21.028 64.18 21.5 64.164C21.98 64.14 22.436 64.104 22.868 64.056C23.308 64 23.672 63.932 23.96 63.852L23.9 65.304C23.58 65.36 23.208 65.412 22.784 65.46C22.36 65.5 21.92 65.532 21.464 65.556C21.016 65.58 20.584 65.596 20.168 65.604C19.76 65.604 19.404 65.596 19.1 65.58ZM17.18 86.912C17.14 86.816 17.08 86.692 17 86.54C16.928 86.396 16.848 86.252 16.76 86.108C16.68 85.964 16.6 85.848 16.52 85.76C17.296 85.568 17.956 85.288 18.5 84.92C19.052 84.544 19.456 84.036 19.712 83.396H17.012C16.892 84.1 16.704 84.732 16.448 85.292C16.2 85.852 15.896 86.368 15.536 86.84C15.376 86.704 15.176 86.568 14.936 86.432C14.696 86.296 14.488 86.2 14.312 86.144C14.72 85.624 15.052 84.984 15.308 84.224C15.572 83.456 15.704 82.492 15.704 81.332V78.056H24.44V81.092H21.38V81.5C21.38 81.756 21.368 82.004 21.344 82.244H25.124V83.396H21.824C22.248 84.02 22.76 84.516 23.36 84.884C23.96 85.252 24.612 85.516 25.316 85.676C25.172 85.852 25.024 86.064 24.872 86.312C24.72 86.568 24.612 86.768 24.548 86.912C23.732 86.64 23.012 86.276 22.388 85.82C21.764 85.356 21.24 84.772 20.816 84.068C20.488 84.748 20.012 85.328 19.388 85.808C18.772 86.28 18.036 86.648 17.18 86.912ZM14.612 77.468V76.244H25.376V77.468H14.612ZM17.18 79.928H22.94V79.184H17.18V79.928ZM17.144 82.244H20C20.016 82.132 20.028 82.012 20.036 81.884C20.044 81.756 20.048 81.628 20.048 81.5V81.092H17.18V81.332C17.18 81.652 17.168 81.956 17.144 82.244ZM20.324 100.384C19.364 100.384 18.656 100.204 18.2 99.844C17.744 99.476 17.516 99.028 17.516 98.5C17.516 98.156 17.6 97.864 17.768 97.624C17.936 97.384 18.156 97.2 18.428 97.072C18.7 96.936 18.992 96.868 19.304 96.868C19.896 96.868 20.372 97.052 20.732 97.42C21.1 97.788 21.336 98.244 21.44 98.788C21.736 98.652 21.976 98.444 22.16 98.164C22.352 97.884 22.448 97.548 22.448 97.156C22.448 96.82 22.368 96.52 22.208 96.256C22.048 95.992 21.82 95.784 21.524 95.632C21.236 95.472 20.9 95.392 20.516 95.392C19.98 95.392 19.512 95.456 19.112 95.584C18.72 95.712 18.364 95.916 18.044 96.196C17.9 96.324 17.708 96.488 17.468 96.688C17.236 96.888 17.016 97.068 16.808 97.228L15.824 96.172C16.184 95.964 16.568 95.7 16.976 95.38C17.384 95.06 17.796 94.704 18.212 94.312C18.628 93.92 19.024 93.516 19.4 93.1C19.776 92.676 20.112 92.26 20.408 91.852C20.064 91.932 19.688 92.008 19.28 92.08C18.88 92.152 18.492 92.212 18.116 92.26C17.748 92.308 17.436 92.34 17.18 92.356L16.916 90.988C17.132 91.004 17.4 91.004 17.72 90.988C18.048 90.964 18.4 90.936 18.776 90.904C19.152 90.864 19.516 90.816 19.868 90.76C20.228 90.704 20.548 90.648 20.828 90.592C21.116 90.528 21.328 90.464 21.464 90.4L22.544 91.12C22.272 91.656 21.896 92.22 21.416 92.812C20.944 93.396 20.436 93.96 19.892 94.504C20.028 94.44 20.18 94.392 20.348 94.36C20.516 94.32 20.68 94.3 20.84 94.3C21.472 94.3 22.02 94.42 22.484 94.66C22.948 94.9 23.308 95.236 23.564 95.668C23.828 96.092 23.96 96.588 23.96 97.156C23.96 97.756 23.808 98.3 23.504 98.788C23.208 99.276 22.788 99.664 22.244 99.952C21.7 100.24 21.06 100.384 20.324 100.384ZM20.168 99.064C20.128 98.76 20.032 98.516 19.88 98.332C19.736 98.148 19.544 98.056 19.304 98.056C19.176 98.056 19.068 98.088 18.98 98.152C18.892 98.216 18.848 98.312 18.848 98.44C18.848 98.608 18.936 98.748 19.112 98.86C19.296 98.972 19.6 99.036 20.024 99.052C20.048 99.06 20.072 99.064 20.096 99.064C20.12 99.064 20.144 99.064 20.168 99.064Z" fill="white"/>
</svg>
