<svg width="32" height="32" viewBox="0 0 32 32" fill="none" xmlns="http://www.w3.org/2000/svg">
<path d="M19.1989 16.5345H13.4656L10.7989 14.5745H6.87891V6.20117H14.7989L19.1989 16.5345Z" fill="#C7D5C9"/>
<path d="M7.68359 14.2808H5.68359V5.10742H16.1903V7.10742H7.68359V14.2808Z" fill="#35633A"/>
<path d="M11.2112 15.2536L8.14453 15.3469C11.8645 15.3469 14.8912 18.3736 14.8912 22.0936V26.1869H22.4912V25.1736C22.4912 23.1869 24.1045 21.5602 26.1045 21.5602L29.2779 21.6802V16.5736C29.2779 15.8402 28.6779 15.2402 27.9445 15.2402H11.2112" fill="#35633A"/>
<path d="M22.4961 25.1739H20.4961C20.4961 22.0805 23.0161 19.5605 26.1094 19.5605C28.3894 19.5605 30.4294 20.9205 31.2961 23.0272L29.4428 23.7872C28.8828 22.4272 27.5761 21.5605 26.1094 21.5605C24.1228 21.5605 22.4961 23.1739 22.4961 25.1739Z" fill="#35633A"/>
<path d="M16.8941 22.0924H14.8941C14.8941 18.3724 11.8674 15.3457 8.14745 15.3457C6.64078 15.3457 5.22745 15.8257 4.02745 16.7457L2.80078 15.159C4.34745 13.9724 6.18745 13.3457 8.13411 13.3457C12.9608 13.3457 16.8808 17.2657 16.8808 22.0924H16.8941Z" fill="#35633A"/>
<path d="M23.5039 25.4398C23.5039 26.9198 24.7039 28.1198 26.1839 28.1198C27.6639 28.1198 28.8639 26.9198 28.8639 25.4398C28.8639 23.9598 27.6639 22.7598 26.1839 22.7598C24.7039 22.7598 23.5039 23.9598 23.5039 25.4398ZM25.2772 25.4398C25.2772 24.9464 25.6772 24.5464 26.1706 24.5464C26.6639 24.5464 27.0639 24.9464 27.0639 25.4398C27.0639 25.9331 26.6639 26.3331 26.1706 26.3331C25.6772 26.3331 25.2772 25.9331 25.2772 25.4398Z" fill="#C7D5C9"/>
<path d="M2.16016 22.3215C2.16016 25.5215 4.76016 28.1215 7.96016 28.1215C11.1602 28.1215 13.7602 25.5215 13.7602 22.3215C13.7602 19.1215 11.1602 16.5215 7.96016 16.5215C4.76016 16.5215 2.16016 19.1215 2.16016 22.3215ZM5.26682 22.3215C5.26682 20.8415 6.46682 19.6415 7.94682 19.6415C9.42682 19.6415 10.6268 20.8415 10.6268 22.3215C10.6268 23.8015 9.42682 25.0015 7.94682 25.0015C6.46682 25.0015 5.26682 23.8015 5.26682 22.3215Z" fill="#C7D5C9"/>
<path opacity="0.9" d="M32 0H0V32H32V0Z" fill="#BCBCBC" fill-opacity="0.9"/>
<path d="M20.8281 17.1648C20.8341 17.0808 20.8371 16.9668 20.8371 16.8228C20.8371 16.6788 20.8371 16.5348 20.8371 16.3908C20.8371 16.2468 20.8341 16.1328 20.8281 16.0488C20.9421 16.0548 21.1431 16.0608 21.4311 16.0668C21.7251 16.0728 22.0731 16.0788 22.4751 16.0848C22.8831 16.0908 23.3181 16.0968 23.7801 16.1028C24.2421 16.1028 24.7041 16.1028 25.1661 16.1028C25.6281 16.1028 26.0631 16.0998 26.4711 16.0938C26.8851 16.0878 27.2421 16.0818 27.5421 16.0758C27.8421 16.0698 28.0551 16.0608 28.1811 16.0488C28.1751 16.1268 28.1691 16.2378 28.1631 16.3818C28.1631 16.5258 28.1631 16.6728 28.1631 16.8228C28.1691 16.9668 28.1721 17.0778 28.1721 17.1558C28.0221 17.1498 27.8001 17.1438 27.5061 17.1378C27.2181 17.1318 26.8791 17.1258 26.4891 17.1198C26.1051 17.1138 25.6941 17.1108 25.2561 17.1108C24.8241 17.1108 24.3861 17.1108 23.9421 17.1108C23.4981 17.1108 23.0751 17.1138 22.6731 17.1198C22.2711 17.1258 21.9081 17.1318 21.5841 17.1378C21.2661 17.1438 21.0141 17.1528 20.8281 17.1648Z" fill="white"/>
<path d="M16.978 20.3873C16.858 20.2853 16.681 20.1563 16.447 20.0003C16.213 19.8383 15.946 19.6703 15.646 19.4963C15.352 19.3163 15.049 19.1423 14.737 18.9743C14.431 18.8003 14.143 18.6503 13.873 18.5243C13.603 18.3923 13.381 18.2963 13.207 18.2363L13.9 17.3363C14.158 17.4323 14.458 17.5613 14.8 17.7233C15.148 17.8853 15.505 18.0623 15.871 18.2543C16.237 18.4463 16.579 18.6383 16.897 18.8303C17.215 19.0163 17.473 19.1873 17.671 19.3433L16.978 20.3873ZM16.357 17.2283C16.231 17.1263 16.045 17.0063 15.799 16.8683C15.553 16.7303 15.286 16.5893 14.998 16.4453C14.716 16.3013 14.443 16.1723 14.179 16.0583C13.921 15.9443 13.711 15.8663 13.549 15.8243L14.215 14.9333C14.407 14.9933 14.629 15.0773 14.881 15.1853C15.133 15.2873 15.391 15.4013 15.655 15.5273C15.925 15.6533 16.177 15.7793 16.411 15.9053C16.651 16.0313 16.846 16.1453 16.996 16.2473L16.357 17.2283ZM17.059 15.1493C16.963 15.0713 16.825 14.9813 16.645 14.8793C16.465 14.7713 16.264 14.6603 16.042 14.5463C15.82 14.4323 15.595 14.3213 15.367 14.2133C15.145 14.1053 14.935 14.0123 14.737 13.9343C14.545 13.8503 14.386 13.7903 14.26 13.7543L14.926 12.8633C15.112 12.9233 15.331 13.0073 15.583 13.1153C15.841 13.2173 16.102 13.3313 16.366 13.4573C16.636 13.5773 16.885 13.7003 17.113 13.8263C17.347 13.9463 17.536 14.0543 17.68 14.1503L17.059 15.1493Z" fill="white"/>
<path d="M3.6925 20.4771C3.6145 20.3031 3.5155 20.1261 3.3955 19.9461C3.2815 19.7601 3.1765 19.6221 3.0805 19.5321C3.7405 19.2861 4.3705 18.9681 4.9705 18.5781C5.5705 18.1881 6.1075 17.7411 6.5815 17.2371C6.2215 16.9851 5.8765 16.7871 5.5465 16.6431L6.1765 15.8151C6.5185 15.9711 6.8845 16.1721 7.2745 16.4181C7.4305 16.1961 7.5745 15.9711 7.7065 15.7431C7.8445 15.5091 7.9675 15.2721 8.0755 15.0321C7.8235 15.0441 7.5505 15.0591 7.2565 15.0771C6.9685 15.0891 6.6985 15.1011 6.4465 15.1131C6.1945 15.1191 5.9965 15.1251 5.8525 15.1311C5.5885 15.5331 5.2885 15.9171 4.9525 16.2831C4.6225 16.6431 4.2595 16.9761 3.8635 17.2821C3.7615 17.1621 3.6325 17.0241 3.4765 16.8681C3.3205 16.7121 3.1825 16.6011 3.0625 16.5351C3.4885 16.2351 3.8845 15.8781 4.2505 15.4641C4.6165 15.0501 4.9375 14.6091 5.2135 14.1411C5.4895 13.6731 5.6935 13.2141 5.8255 12.7641L6.8695 13.0971C6.8035 13.2771 6.7315 13.4601 6.6535 13.6461C6.5755 13.8261 6.4915 14.0031 6.4015 14.1771C6.6655 14.1711 6.9505 14.1651 7.2565 14.1591C7.5625 14.1471 7.8505 14.1351 8.1205 14.1231C8.3965 14.1051 8.6065 14.0871 8.7505 14.0691L9.4435 14.4471C9.2935 14.9271 9.1105 15.3831 8.8945 15.8151C8.6785 16.2411 8.4355 16.6461 8.1655 17.0301C8.3935 17.1981 8.6065 17.3691 8.8045 17.5431C9.0085 17.7111 9.1765 17.8701 9.3085 18.0201C9.2305 18.0801 9.1375 18.1641 9.0295 18.2721C8.9275 18.3801 8.8285 18.4911 8.7325 18.6051C8.6365 18.7191 8.5615 18.8211 8.5075 18.9111C8.3755 18.7551 8.2195 18.5931 8.0395 18.4251C7.8595 18.2511 7.6675 18.0801 7.4635 17.9121C6.9595 18.4641 6.3895 18.9531 5.7535 19.3791C5.1235 19.8051 4.4365 20.1711 3.6925 20.4771ZM9.7315 14.4651C9.6175 14.2731 9.4675 14.0691 9.2815 13.8531C9.1015 13.6371 8.9395 13.4631 8.7955 13.3311L9.2905 12.9441C9.3745 13.0161 9.4795 13.1241 9.6055 13.2681C9.7315 13.4061 9.8545 13.5471 9.9745 13.6911C10.0945 13.8351 10.1875 13.9581 10.2535 14.0601L9.7315 14.4651ZM10.5595 13.7901C10.4455 13.6041 10.2955 13.4061 10.1095 13.1961C9.9235 12.9801 9.7555 12.8061 9.6055 12.6741L10.1005 12.2871C10.1845 12.3591 10.2895 12.4641 10.4155 12.6021C10.5475 12.7401 10.6735 12.8811 10.7935 13.0251C10.9135 13.1691 11.0065 13.2921 11.0725 13.3941L10.5595 13.7901Z" fill="white"/>
</svg>
