<svg width="32" height="32" viewBox="0 0 32 32" fill="none" xmlns="http://www.w3.org/2000/svg">
<mask id="mask0_581_24143" style="mask-type:luminance" maskUnits="userSpaceOnUse" x="0" y="0" width="32" height="32">
<path d="M32 0H0V32H32V0Z" fill="white"/>
</mask>
<g mask="url(#mask0_581_24143)">
<path d="M30.6693 29.3319H28.0026V10.2386L16.0026 5.43859L4.0026 10.2386V29.3319H1.33594V8.42526L16.0026 2.55859L30.6693 8.42526V29.3319Z" fill="#35633A"/>
<path d="M17.5721 20.4009H13.4387L11.5321 18.9876H8.71875V12.9609H14.3987L17.5721 20.4009Z" fill="#F5DD9E"/>
<path d="M9.57422 18.7726H7.57422V11.8926H15.4142V13.8926H9.57422V18.7726Z" fill="#35633A"/>
<path d="M11.8305 19.4785L9.61719 19.5452C12.2972 19.5452 14.0839 21.7185 14.0839 24.3985V27.3318H20.3105V26.6118C20.3105 25.1852 21.0972 24.0118 22.5239 24.0118L24.8172 24.1052V20.4385C24.8172 19.9052 24.3905 19.4785 23.8572 19.4785H11.8172" fill="#35633A"/>
<path d="M20.2266 26.613H18.2266C18.2266 24.2396 20.1599 22.293 22.5466 22.293C24.3066 22.293 25.8666 23.3463 26.5332 24.9596L24.6799 25.7196C24.3199 24.853 23.4799 24.293 22.5466 24.293C21.2666 24.293 20.2266 25.333 20.2266 26.613Z" fill="#35633A"/>
<path d="M16.1882 24.3976H14.1882C14.1882 21.8776 12.1349 19.8242 9.6149 19.8242C8.60156 19.8242 7.62823 20.1576 6.82823 20.7709L5.60156 19.1842C6.76156 18.2909 8.14823 17.8242 9.6149 17.8242C13.2416 17.8242 16.1882 20.7709 16.1882 24.3976Z" fill="#35633A"/>
<path d="M20.7617 26.8931C20.7617 27.9064 21.5751 28.7197 22.5884 28.7197C23.6017 28.7197 24.4151 27.9064 24.4151 26.8931C24.4151 25.8797 23.6017 25.0664 22.5884 25.0664C21.5751 25.0664 20.7617 25.8797 20.7617 26.8931ZM21.9751 26.8931C21.9751 26.5597 22.2551 26.2797 22.5884 26.2797C22.9217 26.2797 23.2017 26.5597 23.2017 26.8931C23.2017 27.2264 22.9217 27.5064 22.5884 27.5064C22.2551 27.5064 21.9751 27.2264 21.9751 26.8931Z" fill="#F5DD9E"/>
<path d="M5.48047 24.7588C5.48047 26.9455 7.2538 28.7188 9.44047 28.7188C11.6271 28.7188 13.4005 26.9455 13.4005 24.7588C13.4005 22.5722 11.6271 20.7988 9.44047 20.7988C7.2538 20.7988 5.48047 22.5722 5.48047 24.7588ZM7.60047 24.7588C7.60047 23.7455 8.4138 22.9322 9.42714 22.9322C10.4405 22.9322 11.2538 23.7455 11.2538 24.7588C11.2538 25.7722 10.4405 26.5855 9.42714 26.5855C8.4138 26.5855 7.60047 25.7722 7.60047 24.7588Z" fill="#F5DD9E"/>
</g>
</svg>
