<svg width="40" height="40" viewBox="0 0 40 40" fill="none" xmlns="http://www.w3.org/2000/svg">
<mask id="mask0_581_27239" style="mask-type:luminance" maskUnits="userSpaceOnUse" x="0" y="0" width="40" height="40">
<path d="M40 0H0V40H40V0Z" fill="white"/>
</mask>
<g mask="url(#mask0_581_27239)">
<path d="M38.3346 36.6659H35.0013V12.7992L20.0013 6.79922L5.0013 12.7992V36.6659H1.66797V10.5326L20.0013 3.19922L38.3346 10.5326V36.6659Z" fill="#35633A"/>
<path d="M21.9651 25.5012H16.7984L14.4151 23.7345H10.8984V16.2012H17.9984L21.9651 25.5012Z" fill="#C7D5C9"/>
<path d="M11.9648 23.4672H9.46484V14.8672H19.2648V17.3672H11.9648V23.4672Z" fill="#35633A"/>
<path d="M14.7823 24.3496L12.0156 24.4329C15.3656 24.4329 17.599 27.1496 17.599 30.4996V34.1663H25.3823V33.2663C25.3823 31.4829 26.3656 30.0163 28.149 30.0163L31.0156 30.1329V25.5496C31.0156 24.8829 30.4823 24.3496 29.8156 24.3496H14.7656" fill="#35633A"/>
<path d="M25.2773 33.2691H22.7773C22.7773 30.3025 25.194 27.8691 28.1773 27.8691C30.3773 27.8691 32.3273 29.1858 33.1607 31.2025L30.844 32.1525C30.394 31.0691 29.344 30.3691 28.1773 30.3691C26.5773 30.3691 25.2773 31.6691 25.2773 33.2691Z" fill="#35633A"/>
<path d="M20.2294 30.4999H17.7294C17.7294 27.3499 15.1628 24.7832 12.0128 24.7832C10.7461 24.7832 9.52943 25.1999 8.52943 25.9665L6.99609 23.9832C8.44609 22.8665 10.1794 22.2832 12.0128 22.2832C16.5461 22.2832 20.2294 25.9665 20.2294 30.4999Z" fill="#35633A"/>
<path d="M25.9492 33.6193C25.9492 34.8859 26.9659 35.9026 28.2326 35.9026C29.4992 35.9026 30.5159 34.8859 30.5159 33.6193C30.5159 32.3526 29.4992 31.3359 28.2326 31.3359C26.9659 31.3359 25.9492 32.3526 25.9492 33.6193ZM27.4659 33.6193C27.4659 33.2026 27.8159 32.8526 28.2326 32.8526C28.6492 32.8526 28.9992 33.2026 28.9992 33.6193C28.9992 34.0359 28.6492 34.3859 28.2326 34.3859C27.8159 34.3859 27.4659 34.0359 27.4659 33.6193Z" fill="#C7D5C9"/>
<path d="M6.84766 30.95C6.84766 33.6833 9.06432 35.9 11.7977 35.9C14.531 35.9 16.7477 33.6833 16.7477 30.95C16.7477 28.2167 14.531 26 11.7977 26C9.06432 26 6.84766 28.2167 6.84766 30.95ZM9.49766 30.95C9.49766 29.6833 10.5143 28.6667 11.781 28.6667C13.0477 28.6667 14.0643 29.6833 14.0643 30.95C14.0643 32.2167 13.0477 33.2333 11.781 33.2333C10.5143 33.2333 9.49766 32.2167 9.49766 30.95Z" fill="#C7D5C9"/>
</g>
</svg>
