<svg width="32" height="32" viewBox="0 0 32 32" fill="none" xmlns="http://www.w3.org/2000/svg">
<path d="M19.1989 16.5345H13.4656L10.7989 14.5745H6.87891V6.20117H14.7989L19.1989 16.5345Z" fill="#C7D5C9"/>
<path d="M7.68359 14.2808H5.68359V5.10742H16.1903V7.10742H7.68359V14.2808Z" fill="#35633A"/>
<path d="M11.2112 15.2536L8.14453 15.3469C11.8645 15.3469 14.8912 18.3736 14.8912 22.0936V26.1869H22.4912V25.1736C22.4912 23.1869 24.1045 21.5602 26.1045 21.5602L29.2779 21.6802V16.5736C29.2779 15.8402 28.6779 15.2402 27.9445 15.2402H11.2112" fill="#35633A"/>
<path d="M22.4961 25.1739H20.4961C20.4961 22.0805 23.0161 19.5605 26.1094 19.5605C28.3894 19.5605 30.4294 20.9205 31.2961 23.0272L29.4428 23.7872C28.8828 22.4272 27.5761 21.5605 26.1094 21.5605C24.1228 21.5605 22.4961 23.1739 22.4961 25.1739Z" fill="#35633A"/>
<path d="M16.8941 22.0924H14.8941C14.8941 18.3724 11.8674 15.3457 8.14745 15.3457C6.64078 15.3457 5.22745 15.8257 4.02745 16.7457L2.80078 15.159C4.34745 13.9724 6.18745 13.3457 8.13411 13.3457C12.9608 13.3457 16.8808 17.2657 16.8808 22.0924H16.8941Z" fill="#35633A"/>
<path d="M23.5039 25.4398C23.5039 26.9198 24.7039 28.1198 26.1839 28.1198C27.6639 28.1198 28.8639 26.9198 28.8639 25.4398C28.8639 23.9598 27.6639 22.7598 26.1839 22.7598C24.7039 22.7598 23.5039 23.9598 23.5039 25.4398ZM25.2772 25.4398C25.2772 24.9464 25.6772 24.5464 26.1706 24.5464C26.6639 24.5464 27.0639 24.9464 27.0639 25.4398C27.0639 25.9331 26.6639 26.3331 26.1706 26.3331C25.6772 26.3331 25.2772 25.9331 25.2772 25.4398Z" fill="#C7D5C9"/>
<path d="M2.16016 22.3215C2.16016 25.5215 4.76016 28.1215 7.96016 28.1215C11.1602 28.1215 13.7602 25.5215 13.7602 22.3215C13.7602 19.1215 11.1602 16.5215 7.96016 16.5215C4.76016 16.5215 2.16016 19.1215 2.16016 22.3215ZM5.26682 22.3215C5.26682 20.8415 6.46682 19.6415 7.94682 19.6415C9.42682 19.6415 10.6268 20.8415 10.6268 22.3215C10.6268 23.8015 9.42682 25.0015 7.94682 25.0015C6.46682 25.0015 5.26682 23.8015 5.26682 22.3215Z" fill="#C7D5C9"/>
</svg>
