<svg width="32" height="32" viewBox="0 0 32 32" fill="none" xmlns="http://www.w3.org/2000/svg">
<path d="M29.3602 14.666H22.5469V16.666H29.3602V14.666Z" fill="#35633A"/>
<path d="M26.957 12.252H24.957V19.0653H26.957V12.252Z" fill="#35633A"/>
<path d="M13.3845 16.9722C16.2785 16.9722 18.6245 14.6262 18.6245 11.7322C18.6245 8.83822 16.2785 6.49219 13.3845 6.49219C10.4906 6.49219 8.14453 8.83822 8.14453 11.7322C8.14453 14.6262 10.4906 16.9722 13.3845 16.9722Z" fill="#F5DD9E"/>
<path d="M22.6678 8.79883H4.12109V10.9722H22.6678V8.79883Z" fill="#35633A"/>
<path d="M24.8396 29.1205C24.8396 29.1205 24.8396 25.8939 24.8396 24.4272C24.8396 22.9472 23.9862 20.6539 21.0129 19.8405C18.0396 19.0272 15.7062 18.5605 13.6396 18.5605H13.1062C11.0529 18.5605 8.71958 19.0139 5.73292 19.8405C2.74625 20.6672 1.90625 22.9605 1.90625 24.4272V29.1205H24.8263H24.8396Z" fill="#35633A"/>
<mask id="mask0_94_8656" style="mask-type:luminance" maskUnits="userSpaceOnUse" x="1" y="18" width="24" height="12">
<path d="M24.8396 29.1186C24.8396 29.1186 24.8396 25.8919 24.8396 24.4253C24.8396 22.9453 23.9862 20.6519 21.0129 19.8386C18.0396 19.0253 15.7062 18.5586 13.6396 18.5586H13.1062C11.0529 18.5586 8.71958 19.0119 5.73292 19.8386C2.74625 20.6653 1.90625 22.9586 1.90625 24.4253V29.1186H24.8263H24.8396Z" fill="white"/>
</mask>
<g mask="url(#mask0_94_8656)">
<path d="M7.98458 18.8555H6.53125V29.7621H7.98458V18.8555Z" fill="#F5DD9E"/>
<path d="M20.3166 18.8555H18.8633V29.7621H20.3166V18.8555Z" fill="#F5DD9E"/>
<path d="M20.3179 23.9082H6.53125V30.5882H20.3179V23.9082Z" fill="#F5DD9E"/>
</g>
<path d="M7.89453 9.88049C7.89453 4.45383 10.3479 3.17383 13.3879 3.17383C16.4279 3.17383 18.8812 4.14716 18.8812 9.88049" fill="#35633A"/>
</svg>
