<svg width="32" height="32" viewBox="0 0 32 32" fill="none" xmlns="http://www.w3.org/2000/svg">
<path d="M19.12 17.3566L17.2344 19.2422L26.653 28.6608L28.5387 26.7752L19.12 17.3566Z" fill="#C7D5C9"/>
<path d="M22.6722 19.9489L19.8438 22.7773L27.0374 29.971L29.8658 27.1426L22.6722 19.9489Z" fill="#35633A"/>
<path d="M12.7717 21.6548C17.6097 21.6548 21.5317 17.7328 21.5317 12.8948C21.5317 8.05675 17.6097 4.13477 12.7717 4.13477C7.9337 4.13477 4.01172 8.05675 4.01172 12.8948C4.01172 17.7328 7.9337 21.6548 12.7717 21.6548Z" fill="#C7D5C9"/>
<path d="M12.773 22.9876C10.1864 22.9876 7.59969 22.0009 5.63969 20.0409C3.67969 18.0809 2.67969 15.6009 2.67969 12.9076C2.67969 10.2142 3.73302 7.68089 5.63969 5.77422C9.57302 1.84089 15.973 1.84089 19.9064 5.77422C23.8397 9.70755 23.8397 16.1076 19.9064 20.0542C17.933 22.0276 15.3597 23.0009 12.773 23.0009V22.9876ZM12.773 5.48089C10.8664 5.48089 8.97302 6.20089 7.51969 7.65422C6.11969 9.05422 5.34635 10.9209 5.34635 12.9076C5.34635 14.8942 6.11969 16.7609 7.51969 18.1609C10.413 21.0542 15.1197 21.0542 18.0264 18.1609C20.933 15.2676 20.9197 10.5476 18.0264 7.65422C16.573 6.20089 14.6797 5.48089 12.773 5.48089Z" fill="#35633A"/>
</svg>
