<svg width="32" height="33" viewBox="0 0 32 33" fill="none" xmlns="http://www.w3.org/2000/svg">
<mask id="mask0_237_10302" style="mask-type:alpha" maskUnits="userSpaceOnUse" x="0" y="0" width="32" height="32">
<rect width="32" height="32" fill="#D9D9D9"/>
</mask>
<g mask="url(#mask0_237_10302)">
<path d="M5.33464 26.6673C4.6013 26.6673 3.97352 26.4062 3.4513 25.884C2.92908 25.3618 2.66797 24.734 2.66797 24.0007V8.00065C2.66797 7.26732 2.92908 6.63954 3.4513 6.11732C3.97352 5.5951 4.6013 5.33398 5.33464 5.33398H26.668C27.4013 5.33398 28.0291 5.5951 28.5513 6.11732C29.0735 6.63954 29.3346 7.26732 29.3346 8.00065V24.0007C29.3346 24.734 29.0735 25.3618 28.5513 25.884C28.0291 26.4062 27.4013 26.6673 26.668 26.6673H5.33464ZM16.0013 17.334L5.33464 10.6673V24.0007H26.668V10.6673L16.0013 17.334ZM16.0013 14.6673L26.668 8.00065H5.33464L16.0013 14.6673ZM5.33464 10.6673V8.00065V24.0007V10.6673Z" fill="white"/>
</g>
</svg>
