<svg width="24" height="24" viewBox="0 0 24 24" fill="none" xmlns="http://www.w3.org/2000/svg">
<path d="M9.28656 21.0891H6.47657L5.47656 13.2891H8.28656L9.28656 21.0891Z" fill="#35633A"/>
<path d="M18.9467 8.61914H18.9367C17.9426 8.61914 17.1367 9.42503 17.1367 10.4191V10.5091C17.1367 11.5033 17.9426 12.3091 18.9367 12.3091H18.9467C19.9408 12.3091 20.7467 11.5033 20.7467 10.5091V10.4191C20.7467 9.42503 19.9408 8.61914 18.9467 8.61914Z" fill="#35633A"/>
<path d="M8.62625 17.1396C7.12625 17.1396 5.90625 15.9196 5.90625 14.4196C5.90625 12.8196 7.12625 11.5996 8.62625 11.5996C10.1262 11.5996 11.3462 12.8196 11.3462 14.3196C11.3462 15.9196 10.1262 17.1396 8.62625 17.1396ZM8.62625 12.7796C7.77625 12.7796 7.08625 13.4696 7.08625 14.3196C7.08625 15.2696 7.77625 15.9596 8.62625 15.9596C9.47625 15.9596 10.1662 15.2696 10.1662 14.4196C10.1662 13.4696 9.47625 12.7796 8.62625 12.7796Z" fill="#35633A"/>
<path d="M6.40657 6.87891H3.22656V14.0589H6.40657V6.87891Z" fill="#35633A"/>
<path d="M19.2262 3.96875C17.1562 6.03875 10.7262 6.67875 6.40625 6.87875V14.0588C10.7262 14.2587 17.1462 14.8987 19.2262 16.9687V3.96875Z" fill="#C7D5C9"/>
<mask id="mask0_556_16929" style="mask-type:luminance" maskUnits="userSpaceOnUse" x="17" y="3" width="3" height="15">
<path d="M19.3087 3.78711H17.2188V17.0871H19.3087V3.78711Z" fill="white"/>
</mask>
<g mask="url(#mask0_556_16929)">
<path d="M19.2302 3.96875C17.1602 6.03875 10.7302 6.67875 6.41016 6.87875V14.0588C10.7302 14.2587 17.1502 14.8987 19.2302 16.9687V3.96875Z" fill="#35633A"/>
</g>
</svg>
