<svg width="32" height="32" viewBox="0 0 32 32" fill="none" xmlns="http://www.w3.org/2000/svg">
<path d="M16.0017 16.9761C18.8957 16.9761 21.2417 14.6301 21.2417 11.7361C21.2417 8.84212 18.8957 6.49609 16.0017 6.49609C13.1077 6.49609 10.7617 8.84212 10.7617 11.7361C10.7617 14.6301 13.1077 16.9761 16.0017 16.9761Z" fill="#F5DD9E"/>
<path d="M25.2654 8.80273H6.71875V10.9761H25.2654V8.80273Z" fill="#35633A"/>
<path d="M27.4568 29.1205C27.4568 29.1205 27.4568 25.8939 27.4568 24.4272C27.4568 22.9472 26.6034 20.6539 23.6301 19.8406C20.6568 19.0272 18.3234 18.5605 16.2568 18.5605H15.7234C13.6701 18.5605 11.3368 19.0139 8.3501 19.8406C5.36344 20.6672 4.52344 22.9605 4.52344 24.4272V29.1205H27.4434H27.4568Z" fill="#35633A"/>
<mask id="mask0_581_24113" style="mask-type:luminance" maskUnits="userSpaceOnUse" x="4" y="18" width="24" height="12">
<path d="M27.4607 29.1186C27.4607 29.1186 27.4607 25.8919 27.4607 24.4253C27.4607 22.9453 26.6073 20.6519 23.634 19.8386C20.6607 19.0253 18.3273 18.5586 16.2607 18.5586H15.7273C13.674 18.5586 11.3407 19.0119 8.35401 19.8386C5.36734 20.6653 4.52734 22.9586 4.52734 24.4253V29.1186H27.4473H27.4607Z" fill="white"/>
</mask>
<g mask="url(#mask0_581_24113)">
<path d="M10.6057 18.8555H9.15234V29.7621H10.6057V18.8555Z" fill="#F5DD9E"/>
<path d="M22.9377 18.8555H21.4844V29.7621H22.9377V18.8555Z" fill="#F5DD9E"/>
<path d="M22.939 23.9082H9.15234V30.5882H22.939V23.9082Z" fill="#F5DD9E"/>
</g>
<path d="M10.5078 9.88245C10.5078 4.45578 12.9611 3.17578 16.0011 3.17578C19.0411 3.17578 21.4945 4.14912 21.4945 9.88245" fill="#35633A"/>
</svg>
