<svg width="40" height="40" viewBox="0 0 40 40" fill="none" xmlns="http://www.w3.org/2000/svg">
<path d="M23.6331 13.2189H18.4664L16.0831 11.4689H12.5664V3.93555H19.6664L23.6331 13.2189Z" fill="#C7D5C9"/>
<path d="M13.6328 11.1849H11.1328V2.60156H20.9328V5.10156H13.6328V11.1849Z" fill="#35633A"/>
<path d="M16.4503 12.0684L13.6836 12.1517C17.0336 12.1517 19.2669 14.8684 19.2669 18.2184V21.885H27.0503V20.985C27.0503 19.2017 28.0336 17.735 29.8169 17.735L32.6836 17.8517V13.2684C32.6836 12.6017 32.1503 12.0684 31.4836 12.0684H16.4336" fill="#35633A"/>
<path d="M26.9453 20.984H24.4453C24.4453 18.0173 26.862 15.584 29.8453 15.584C32.0453 15.584 33.9953 16.9007 34.8287 18.9173L32.512 19.8673C32.062 18.784 31.012 18.084 29.8287 18.084C28.2287 18.084 26.9286 19.384 26.9286 20.984H26.9453Z" fill="#35633A"/>
<path d="M21.8974 18.2167H19.3974C19.3974 15.0667 16.8307 12.5 13.6807 12.5C12.4141 12.5 11.1974 12.9167 10.1974 13.6833L8.66406 11.7C10.1141 10.5833 11.8474 10 13.6807 10C18.2141 10 21.8974 13.6833 21.8974 18.2167Z" fill="#35633A"/>
<path d="M27.6172 21.3536C27.6172 22.6203 28.6339 23.637 29.9005 23.637C31.1672 23.637 32.1839 22.6203 32.1839 21.3536C32.1839 20.087 31.1672 19.0703 29.9005 19.0703C28.6339 19.0703 27.6172 20.087 27.6172 21.3536ZM29.1339 21.3536C29.1339 20.937 29.4839 20.587 29.9005 20.587C30.3172 20.587 30.6672 20.937 30.6672 21.3536C30.6672 21.7703 30.3172 22.1203 29.9005 22.1203C29.4839 22.1203 29.1339 21.7703 29.1339 21.3536Z" fill="#C7D5C9"/>
<path d="M8.51562 18.6844C8.51562 21.4177 10.7323 23.6344 13.4656 23.6344C16.199 23.6344 18.4156 21.4177 18.4156 18.6844C18.4156 15.951 16.199 13.7344 13.4656 13.7344C10.7323 13.7344 8.51562 15.951 8.51562 18.6844ZM11.1656 18.6844C11.1656 17.4177 12.1823 16.401 13.449 16.401C14.7156 16.401 15.7323 17.4177 15.7323 18.6844C15.7323 19.951 14.7156 20.9677 13.449 20.9677C12.1823 20.9677 11.1656 19.951 11.1656 18.6844Z" fill="#C7D5C9"/>
<path d="M36.918 24.8487C36.418 24.3154 35.6013 24.182 34.968 24.5654L30.6346 27.082C30.6846 27.2654 30.7513 27.4487 30.7513 27.6654C30.7513 28.682 29.9513 29.5487 28.9346 29.632L23.2846 30.082C22.368 30.1487 21.468 30.382 20.618 30.7654L19.118 31.432C19.118 31.432 19.0013 31.4654 18.9513 31.4654C18.7846 31.4654 18.6346 31.382 18.568 31.2154C18.468 30.9987 18.568 30.7654 18.7846 30.6654L20.2846 29.9987C21.218 29.582 22.218 29.332 23.2346 29.2487L28.8846 28.7987C29.468 28.7487 29.9346 28.2487 29.9346 27.6654C29.9346 27.082 29.4513 26.5487 28.8513 26.532C28.8513 26.532 13.7346 25.4154 12.3513 25.532C11.368 25.6154 10.418 25.932 9.58464 26.4987L2.16797 31.4987L7.18464 37.9154L12.018 34.4154C12.3346 34.182 12.7346 34.082 13.118 34.132L25.7013 35.5487C26.118 35.5987 26.5513 35.4654 26.868 35.1987L36.768 27.1654C37.4846 26.582 37.5513 25.532 36.9346 24.8654L36.918 24.8487Z" fill="#C7D5C9"/>
</svg>
