<svg width="32" height="32" viewBox="0 0 32 32" fill="none" xmlns="http://www.w3.org/2000/svg">
<path d="M12.3847 28.1168H8.63803L7.30469 17.7168H11.0514L12.3847 28.1168Z" fill="#35633A"/>
<path d="M25.2649 11.4902H25.2516C23.9261 11.4902 22.8516 12.5648 22.8516 13.8902V14.0102C22.8516 15.3357 23.9261 16.4102 25.2516 16.4102H25.2649C26.5904 16.4102 27.6649 15.3357 27.6649 14.0102V13.8902C27.6649 12.5648 26.5904 11.4902 25.2649 11.4902Z" fill="#35633A"/>
<path d="M11.5056 22.8515C9.50557 22.8515 7.87891 21.2248 7.87891 19.2248C7.87891 17.0915 9.50557 15.4648 11.5056 15.4648C13.5056 15.4648 15.1322 17.0915 15.1322 19.0915C15.1322 21.2248 13.5056 22.8515 11.5056 22.8515ZM11.5056 17.0382C10.3722 17.0382 9.45223 17.9582 9.45223 19.0915C9.45223 20.3582 10.3722 21.2782 11.5056 21.2782C12.6389 21.2782 13.5589 20.3582 13.5589 19.2248C13.5589 17.9582 12.6389 17.0382 11.5056 17.0382Z" fill="#35633A"/>
<path d="M8.54469 9.16992H4.30469V18.7433H8.54469V9.16992Z" fill="#35633A"/>
<path d="M25.6363 5.28906C22.8763 8.04906 14.303 8.9024 8.54297 9.16906V18.7424C14.303 19.0091 22.863 19.8624 25.6363 22.6224V5.28906Z" fill="#F5DD9E"/>
<mask id="mask0_581_24128" style="mask-type:luminance" maskUnits="userSpaceOnUse" x="22" y="5" width="4" height="18">
<path d="M25.7437 5.04883H22.957V22.7822H25.7437V5.04883Z" fill="white"/>
</mask>
<g mask="url(#mask0_581_24128)">
<path d="M25.6363 5.28906C22.8763 8.04906 14.303 8.9024 8.54297 9.16906V18.7424C14.303 19.0091 22.863 19.8624 25.6363 22.6224V5.28906Z" fill="#35633A"/>
</g>
</svg>
