<svg width="32" height="32" viewBox="0 0 32 32" fill="none" xmlns="http://www.w3.org/2000/svg">
<path d="M18.9041 10.5771H14.7708L12.8641 9.17706H10.0508V3.15039H15.7308L18.9041 10.5771Z" fill="#F5DD9E"/>
<path d="M10.9062 8.9487H8.90625V2.08203H16.7463V4.08203H10.9062V8.9487Z" fill="#35633A"/>
<path d="M13.1626 9.6543L10.9492 9.72096C13.6292 9.72096 15.4159 11.8943 15.4159 14.5743V17.5076H21.6426V16.7876C21.6426 15.361 22.4292 14.1876 23.8559 14.1876L26.1492 14.281V10.6143C26.1492 10.081 25.7226 9.6543 25.1892 9.6543H13.1492" fill="#35633A"/>
<path d="M21.5586 16.7868H19.5586C19.5586 14.4135 21.4919 12.4668 23.8786 12.4668C25.6386 12.4668 27.1986 13.5201 27.8653 15.1335L26.0119 15.8935C25.6519 15.0268 24.8119 14.4668 23.8653 14.4668C22.5853 14.4668 21.5453 15.5068 21.5453 16.7868H21.5586Z" fill="#35633A"/>
<path d="M17.5203 14.5753H15.5203C15.5203 12.0553 13.4669 10.002 10.9469 10.002C9.93359 10.002 8.96026 10.3353 8.16026 10.9486L6.93359 9.36195C8.09359 8.46862 9.48026 8.00195 10.9469 8.00195C14.5736 8.00195 17.5203 10.9486 17.5203 14.5753Z" fill="#35633A"/>
<path d="M22.0938 17.0825C22.0938 18.0959 22.9071 18.9092 23.9204 18.9092C24.9337 18.9092 25.7471 18.0959 25.7471 17.0825C25.7471 16.0692 24.9337 15.2559 23.9204 15.2559C22.9071 15.2559 22.0938 16.0692 22.0938 17.0825ZM23.3071 17.0825C23.3071 16.7492 23.5871 16.4692 23.9204 16.4692C24.2537 16.4692 24.5338 16.7492 24.5338 17.0825C24.5338 17.4159 24.2537 17.6959 23.9204 17.6959C23.5871 17.6959 23.3071 17.4159 23.3071 17.0825Z" fill="#F5DD9E"/>
<path d="M6.8125 14.9483C6.8125 17.1349 8.58583 18.9083 10.7725 18.9083C12.9592 18.9083 14.7325 17.1349 14.7325 14.9483C14.7325 12.7616 12.9592 10.9883 10.7725 10.9883C8.58583 10.9883 6.8125 12.7616 6.8125 14.9483ZM8.9325 14.9483C8.9325 13.9349 9.74583 13.1216 10.7592 13.1216C11.7725 13.1216 12.5858 13.9349 12.5858 14.9483C12.5858 15.9616 11.7725 16.7749 10.7592 16.7749C9.74583 16.7749 8.9325 15.9616 8.9325 14.9483Z" fill="#F5DD9E"/>
<path d="M29.5344 19.879C29.1344 19.4523 28.481 19.3456 27.9744 19.6523L24.5077 21.6656C24.5477 21.8123 24.601 21.959 24.601 22.1323C24.601 22.9456 23.961 23.639 23.1477 23.7056L18.6277 24.0656C17.8944 24.119 17.1744 24.3056 16.4944 24.6123L15.2944 25.1456C15.2944 25.1456 15.201 25.1723 15.161 25.1723C15.0277 25.1723 14.9077 25.1056 14.8544 24.9723C14.7744 24.799 14.8544 24.6123 15.0277 24.5323L16.2277 23.999C16.9744 23.6656 17.7744 23.4656 18.5877 23.399L23.1077 23.039C23.5744 22.999 23.9477 22.599 23.9477 22.1323C23.9477 21.6656 23.561 21.239 23.081 21.2256C23.081 21.2256 10.9877 20.3323 9.88104 20.4256C9.09438 20.4923 8.33438 20.7456 7.66771 21.199L1.73438 25.199L5.74771 30.3323L9.61437 27.5323C9.86771 27.3456 10.1877 27.2656 10.4944 27.3056L20.561 28.439C20.8944 28.479 21.241 28.3723 21.4944 28.159L29.4144 21.7323C29.9877 21.2656 30.041 20.4256 29.5477 19.8923L29.5344 19.879Z" fill="#F5DD9E"/>
</svg>
