<svg width="32" height="32" viewBox="0 0 32 32" fill="none" xmlns="http://www.w3.org/2000/svg">
<path d="M17.8405 3.38672H4.86719V28.2001H22.5205V8.06672L17.8405 3.38672Z" fill="#35633A"/>
<mask id="mask0_94_8657" style="mask-type:luminance" maskUnits="userSpaceOnUse" x="4" y="3" width="19" height="26">
<path d="M17.8444 3.38867H4.87109V28.202H22.5244V8.06867L17.8444 3.38867Z" fill="white"/>
</mask>
<g mask="url(#mask0_94_8657)">
<path d="M25.9104 0.00195312H17.8438V8.06862H25.9104V0.00195312Z" fill="#F5DD9E"/>
</g>
<path d="M27.4536 28.7195L22.2136 23.4795C21.8403 23.1061 21.8403 22.5061 22.2136 22.1328L22.6269 21.7195C23.0003 21.3461 23.6003 21.3461 23.9736 21.7195L29.2136 26.9595L27.4536 28.7195Z" fill="#35633A"/>
<path d="M19.3463 24.2921C22.3507 24.2921 24.7863 21.8565 24.7863 18.8521C24.7863 15.8477 22.3507 13.4121 19.3463 13.4121C16.3418 13.4121 13.9062 15.8477 13.9062 18.8521C13.9062 21.8565 16.3418 24.2921 19.3463 24.2921Z" fill="#35633A"/>
<path d="M19.3448 25.6259C17.5315 25.6259 15.8381 24.9193 14.5581 23.6393C11.9181 20.9993 11.9181 16.7059 14.5581 14.0659C17.1981 11.4259 21.4915 11.4259 24.1315 14.0659C25.4115 15.3459 26.1181 17.0393 26.1181 18.8526C26.1181 20.6659 25.4115 22.3593 24.1315 23.6393C22.8515 24.9193 21.1581 25.6259 19.3448 25.6259ZM19.3448 14.7593C18.2915 14.7593 17.2381 15.1593 16.4381 15.9593C14.8381 17.5593 14.8381 20.1593 16.4381 21.7593C17.9848 23.3059 20.6915 23.3059 22.2381 21.7593C23.0115 20.9859 23.4381 19.9593 23.4381 18.8526C23.4381 17.7459 23.0115 16.7326 22.2381 15.9459C21.4381 15.1459 20.3848 14.7459 19.3315 14.7459L19.3448 14.7593Z" fill="#F5DD9E"/>
<path d="M15.2231 6.8125H7.31641V8.8125H15.2231V6.8125Z" fill="#F5DD9E"/>
<path d="M12.5164 10.4141H7.31641V12.4141H12.5164V10.4141Z" fill="#F5DD9E"/>
</svg>
