<svg width="32" height="33" viewBox="0 0 32 33" fill="none" xmlns="http://www.w3.org/2000/svg">
<mask id="mask0_237_16591" style="mask-type:alpha" maskUnits="userSpaceOnUse" x="0" y="0" width="32" height="33">
<rect y="0.455078" width="32" height="32" fill="#D9D9D9"/>
</mask>
<g mask="url(#mask0_237_16591)">
<path d="M7.9987 29.7878C7.26536 29.7878 6.63759 29.5266 6.11536 29.0044C5.59314 28.4822 5.33203 27.8544 5.33203 27.1211V5.78776C5.33203 5.05443 5.59314 4.42665 6.11536 3.90443C6.63759 3.3822 7.26536 3.12109 7.9987 3.12109H23.9987C24.732 3.12109 25.3598 3.3822 25.882 3.90443C26.4043 4.42665 26.6654 5.05443 26.6654 5.78776V27.1211C26.6654 27.8544 26.4043 28.4822 25.882 29.0044C25.3598 29.5266 24.732 29.7878 23.9987 29.7878H7.9987ZM7.9987 27.1211H23.9987V5.78776H21.332V15.1211L17.9987 13.1211L14.6654 15.1211V5.78776H7.9987V27.1211Z" fill="white"/>
</g>
</svg>
