<svg width="32" height="32" viewBox="0 0 32 32" fill="none" xmlns="http://www.w3.org/2000/svg">
<path d="M23.334 2.66602H8.66732C7.93094 2.66602 7.33398 3.26297 7.33398 3.99935V27.9993C7.33398 28.7357 7.93094 29.3327 8.66732 29.3327H23.334C24.0704 29.3327 24.6673 28.7357 24.6673 27.9993V3.99935C24.6673 3.26297 24.0704 2.66602 23.334 2.66602Z" fill="#C7D5C9"/>
<path d="M23.3333 30.6654H8.66667C7.2 30.6654 6 29.4654 6 27.9987V3.9987C6 2.53203 7.2 1.33203 8.66667 1.33203H23.3333C24.8 1.33203 26 2.53203 26 3.9987V27.9987C26 29.4654 24.8 30.6654 23.3333 30.6654ZM8.66667 3.9987V27.9987H23.3333V3.9987H8.66667Z" fill="#35633A"/>
<path d="M22 10H10V22H22V10Z" fill="#35633A"/>
<path d="M15.3333 10H14V15.3333H15.3333V10Z" fill="#C7D5C9"/>
<path d="M15.3333 14H10V15.3333H15.3333V14Z" fill="#C7D5C9"/>
<path d="M19.3333 19.334H18V20.6673H19.3333V19.334Z" fill="#C7D5C9"/>
<path d="M20.6673 11.334H19.334V12.6673H20.6673V11.334Z" fill="#C7D5C9"/>
<path d="M12.6673 19.334H11.334V20.6673H12.6673V19.334Z" fill="#C7D5C9"/>
<path d="M12.6673 11.334H11.334V12.6673H12.6673V11.334Z" fill="#C7D5C9"/>
<path d="M19.3333 15.334H18V16.6673H19.3333V15.334Z" fill="#C7D5C9"/>
<path d="M20.6673 19.334H19.334V22.0007H20.6673V19.334Z" fill="#C7D5C9"/>
<path d="M22 14H18V15.3333H22V14Z" fill="#C7D5C9"/>
<path d="M16.6673 15.334H15.334V16.6673H16.6673V15.334Z" fill="#C7D5C9"/>
<path d="M16.6673 18H15.334V19.3333H16.6673V18Z" fill="#C7D5C9"/>
<path d="M17.9993 10H16.666V14H17.9993V10Z" fill="#C7D5C9"/>
<path d="M14 16.666H10V17.9993H14V16.666Z" fill="#C7D5C9"/>
<path d="M15.3333 18H14V22H15.3333V18Z" fill="#C7D5C9"/>
<path d="M17.9993 16.666H16.666V17.9993H17.9993V16.666Z" fill="#C7D5C9"/>
<path d="M19.3333 18H18V19.3333H19.3333V18Z" fill="#C7D5C9"/>
<path d="M17.9993 20.666H16.666V21.9993H17.9993V20.666Z" fill="#C7D5C9"/>
<path d="M12.6673 15.334H11.334V16.6673H12.6673V15.334Z" fill="#C7D5C9"/>
<path d="M16.6673 12.666H15.334V13.9993H16.6673V12.666Z" fill="#C7D5C9"/>
<path d="M21.9993 16.666H20.666V19.3327H21.9993V16.666Z" fill="#C7D5C9"/>
<path d="M18.3459 2.66602H13.5059V3.99935H18.3459V2.66602Z" fill="#C7D5C9"/>
<path d="M19.6785 1.33203H12.1719V5.33203H19.6785V1.33203Z" fill="#35633A"/>
<path d="M7.33398 26.666H24.6673V27.9993C24.6673 28.7327 24.0673 29.3327 23.334 29.3327H8.66732C7.93398 29.3327 7.33398 28.7327 7.33398 27.9993V26.666Z" fill="#35633A"/>
</svg>
