<svg width="32" height="32" viewBox="0 0 32 32" fill="none" xmlns="http://www.w3.org/2000/svg">
<path d="M23.332 2.66602H8.66536C7.92898 2.66602 7.33203 3.26297 7.33203 3.99935V27.9993C7.33203 28.7357 7.92898 29.3327 8.66536 29.3327H23.332C24.0684 29.3327 24.6654 28.7357 24.6654 27.9993V3.99935C24.6654 3.26297 24.0684 2.66602 23.332 2.66602Z" fill="#F5DD9E"/>
<path d="M23.3333 30.6654H8.66667C7.2 30.6654 6 29.4654 6 27.9987V3.9987C6 2.53203 7.2 1.33203 8.66667 1.33203H23.3333C24.8 1.33203 26 2.53203 26 3.9987V27.9987C26 29.4654 24.8 30.6654 23.3333 30.6654ZM8.66667 3.9987V27.9987H23.3333V3.9987H8.66667Z" fill="#35633A"/>
<path d="M22 10H10V22H22V10Z" fill="#35633A"/>
<path d="M15.3333 10H14V15.3333H15.3333V10Z" fill="#F5DD9E"/>
<path d="M15.3333 14H10V15.3333H15.3333V14Z" fill="#F5DD9E"/>
<path d="M19.3333 19.334H18V20.6673H19.3333V19.334Z" fill="#F5DD9E"/>
<path d="M20.6654 11.334H19.332V12.6673H20.6654V11.334Z" fill="#F5DD9E"/>
<path d="M12.6654 19.334H11.332V20.6673H12.6654V19.334Z" fill="#F5DD9E"/>
<path d="M12.6654 11.334H11.332V12.6673H12.6654V11.334Z" fill="#F5DD9E"/>
<path d="M19.3333 15.334H18V16.6673H19.3333V15.334Z" fill="#F5DD9E"/>
<path d="M20.6654 19.334H19.332V22.0007H20.6654V19.334Z" fill="#F5DD9E"/>
<path d="M22 14H18V15.3333H22V14Z" fill="#F5DD9E"/>
<path d="M16.6654 15.334H15.332V16.6673H16.6654V15.334Z" fill="#F5DD9E"/>
<path d="M16.6654 18H15.332V19.3333H16.6654V18Z" fill="#F5DD9E"/>
<path d="M18.0013 10H16.668V14H18.0013V10Z" fill="#F5DD9E"/>
<path d="M14 16.666H10V17.9993H14V16.666Z" fill="#F5DD9E"/>
<path d="M15.3333 18H14V22H15.3333V18Z" fill="#F5DD9E"/>
<path d="M18.0013 16.666H16.668V17.9993H18.0013V16.666Z" fill="#F5DD9E"/>
<path d="M19.3333 18H18V19.3333H19.3333V18Z" fill="#F5DD9E"/>
<path d="M18.0013 20.666H16.668V21.9993H18.0013V20.666Z" fill="#F5DD9E"/>
<path d="M12.6654 15.334H11.332V16.6673H12.6654V15.334Z" fill="#F5DD9E"/>
<path d="M16.6654 12.666H15.332V13.9993H16.6654V12.666Z" fill="#F5DD9E"/>
<path d="M22.0013 16.666H20.668V19.3327H22.0013V16.666Z" fill="#F5DD9E"/>
<path d="M18.3439 2.66602H13.5039V3.99935H18.3439V2.66602Z" fill="#F5DD9E"/>
<path d="M19.6785 1.33203H12.1719V5.33203H19.6785V1.33203Z" fill="#35633A"/>
<path d="M7.33594 26.666H24.6693V27.9993C24.6693 28.7327 24.0693 29.3327 23.3359 29.3327H8.66927C7.93594 29.3327 7.33594 28.7327 7.33594 27.9993V26.666Z" fill="#35633A"/>
</svg>
