<svg width="32" height="32" viewBox="0 0 32 32" fill="none" xmlns="http://www.w3.org/2000/svg">
<path d="M15.9991 26.5861C21.8386 26.5861 26.5724 21.8523 26.5724 16.0128C26.5724 10.1733 21.8386 5.43945 15.9991 5.43945C10.1596 5.43945 5.42578 10.1733 5.42578 16.0128C5.42578 21.8523 10.1596 26.5861 15.9991 26.5861Z" fill="#F5DD9E"/>
<path d="M15.9715 27.9063C13.4381 27.9063 10.8915 27.1063 8.74479 25.4529C7.82479 24.7463 7.01146 23.9063 6.33146 22.9596L8.50479 21.4129C9.02479 22.1463 9.65146 22.7863 10.3715 23.3463C14.4115 26.4396 20.2381 25.6796 23.3315 21.6263C26.4381 17.5729 25.6648 11.7596 21.6115 8.66627C19.6515 7.1596 17.2248 6.5196 14.7715 6.8396C12.3181 7.1596 10.1448 8.42627 8.63813 10.3863C7.41146 11.9729 6.75813 13.8929 6.74479 15.9196L4.07812 15.8929C4.10479 13.2796 4.94479 10.8263 6.51813 8.7596C8.45146 6.2396 11.2515 4.61293 14.4115 4.1996C17.5581 3.78627 20.6915 4.61293 23.2248 6.5596C28.4381 10.5596 29.4248 18.0529 25.4381 23.2663C23.0915 26.3196 19.5448 27.9329 15.9715 27.9329V27.9063Z" fill="#35633A"/>
<path d="M5.31911 18.4143L1.42578 13.9743L2.93245 12.6543L5.49245 15.5743L8.39911 12.9876L9.73245 14.481L5.31911 18.4143Z" fill="#35633A"/>
<path d="M15.9453 9.86719V15.9339L18.4386 18.4272" fill="#F5DD9E"/>
<path d="M17.732 19.1339L14.9453 16.3605V9.86719H16.9453V15.5205L19.1453 17.7205L17.732 19.1339Z" fill="#35633A"/>
</svg>
